<!DOCTYPE svg PUBLIC "-//W3C//DTD SVG 1.1//EN" "http://www.w3.org/Graphics/SVG/1.1/DTD/svg11.dtd">

<!-- Uploaded to: SVG Repo, www.svgrepo.com, Transformed by: SVG Repo Mixer Tools -->
<svg fill="#4B5563" width="40px" height="40px" viewBox="0 0 24 24" xmlns="http://www.w3.org/2000/svg" stroke="#4B5563" stroke-width="0.000000000000000000000000000000003">

<g id="SVGRepo_bgCarrier" stroke-width="0"/>

<g id="SVGRepo_tracerCarrier" stroke-linecap="round" stroke-linejoin="round"/>

<g id="SVGRepo_iconCarrier"> <title/> <g data-name="Layer 2" id="Layer_2"> <path d="M17,2H14.49L12,8.29,9.51,2H7A5,5,0,0,0,2,7v4H6v1H5v2H6v8H18V11h4V7A5,5,0,0,0,17,2ZM8,10V7H6V9H4V7A3,3,0,0,1,7,4H8.15L11,11.19V12H8Zm0,4h3v6H8Zm5,6V14h3v6ZM20,9H18V7H16v5H13v-.81L15.85,4H17a3,3,0,0,1,3,3Z"/> </g> </g>

</svg>